<svg xmlns="http://www.w3.org/2000/svg" width="145" height="175" viewBox="0 0 145 175" version="1.1"><path d="" stroke="none" fill="#282424" fill-rule="evenodd"/><path d="M 83 2.470 C 83 4.765, 80.635 9.815, 77.379 14.473 C 76.621 15.557, 76 17.286, 76 18.315 C 76 19.343, 75.103 21.325, 74.006 22.719 C 70.998 26.543, 66.419 42.119, 64.610 54.682 C 62.607 68.595, 62.565 81.803, 64.486 93.500 C 65.300 98.450, 65.973 103.243, 65.983 104.152 C 66.003 106.129, 61.190 108, 56.083 108 C 50.688 108, 45.685 111.904, 42.334 118.729 C 39.815 123.859, 39.504 125.556, 39.532 134 C 39.570 145.254, 41.686 151.039, 48.199 157.692 C 54.460 164.088, 60.651 166.414, 71.500 166.447 C 79.529 166.471, 81.141 166.152, 86.441 163.487 C 97.615 157.869, 104.807 145.678, 105.762 130.734 C 106.224 123.519, 106.034 122.510, 103.084 116.520 C 99.270 108.772, 94.435 104.501, 87 102.312 C 82.062 100.858, 80.916 100.844, 75.790 102.171 C 69.059 103.913, 69.545 104.523, 67.909 92.273 C 66.476 81.542, 67.308 56.565, 69.447 46.091 C 71.344 36.804, 75.640 27.731, 80.687 22.354 C 87.980 14.585, 90.638 6.953, 87.863 1.750 C 86.397 -0.999, 83 -0.497, 83 2.470 M 89 107.723 C 89 108.981, 91.858 111.475, 92.530 110.803 C 92.795 110.538, 92.110 109.504, 91.006 108.506 C 89.903 107.507, 89 107.155, 89 107.723 M 49 123.878 C 49 125.138, 51.935 127.398, 52.648 126.686 C 53.672 125.662, 52.143 123, 50.531 123 C 49.689 123, 49 123.395, 49 123.878" stroke="none" fill="#242424" fill-rule="evenodd"/></svg>