<svg xmlns="http://www.w3.org/2000/svg" width="386" height="109" viewBox="0 0 386 109" version="1.1"><path d="M 90.366 1.919 C 85.220 5.056, 76.530 18.209, 71.901 29.866 C 70.670 32.965, 69.576 35.626, 69.468 35.780 C 69.361 35.934, 66.640 36.489, 63.423 37.013 C 57.850 37.920, 57.443 37.840, 54.831 35.338 L 52.090 32.712 56.323 29.479 C 62.945 24.423, 68 16.145, 68 10.358 C 68 8.893, 66.733 6.580, 64.962 4.808 L 61.924 1.770 52.212 2.209 C 45.164 2.528, 40.496 3.360, 35.194 5.243 C 15.448 12.258, -0.684 27.272, 0.194 37.820 C 0.458 40.997, 0.842 41.500, 3 41.500 C 5.290 41.500, 5.545 41.048, 6.041 36.111 C 6.547 31.064, 6.972 30.356, 12.728 24.945 C 23.928 14.418, 40.046 7.073, 52.050 7.026 C 59.333 6.997, 61 7.970, 61 12.250 C 61 20.532, 53.638 26.810, 37.250 32.503 C 36.563 32.742, 36 33.851, 36 34.969 C 36 36.777, 36.637 37, 41.809 37 C 45.168 37, 48.413 37.582, 49.504 38.379 C 51.246 39.653, 51.084 39.810, 47.374 40.437 C 45.165 40.810, 39.817 42.654, 35.490 44.536 C 31.163 46.417, 27.490 47.824, 27.329 47.662 C 26.793 47.127, 33.916 32.982, 36.874 28.707 C 38.475 26.393, 41.875 22.298, 44.428 19.607 C 49.224 14.554, 49.557 13.385, 46.713 11.591 C 42.998 9.248, 30.720 25.705, 23.969 42.076 C 22.336 46.035, 21 49.828, 21 50.505 C 21 51.181, 19.140 52.965, 16.866 54.470 C -0.333 65.852, -5.183 79.717, 6.011 85.506 C 18.465 91.946, 47.358 76.019, 56.735 57.545 C 58.231 54.597, 59.406 50.421, 59.562 47.500 C 59.828 42.529, 59.851 42.498, 63.472 42.186 L 67.115 41.872 66.322 45.686 C 63.660 58.490, 70.740 65.058, 80.248 58.606 L 83.776 56.212 84.866 58.606 C 86.790 62.829, 91.661 61.205, 99.750 53.645 L 103 50.608 103 53.732 C 103 60.068, 108.125 61.761, 114.405 57.500 C 118.660 54.613, 119 54.527, 119 56.345 C 119 58.576, 122.467 61, 125.659 61 C 128.580 61, 134.724 58.315, 140.201 54.645 L 142.901 52.835 142.353 56.214 C 141.336 62.477, 146.691 63.715, 148.605 57.660 C 148.981 56.472, 149.979 54.444, 150.823 53.153 L 152.357 50.806 154.193 54.385 C 157.936 61.681, 165.589 62.729, 171.723 56.784 C 177.317 51.362, 174.774 48.488, 168.818 53.500 C 165.264 56.491, 163.957 56.596, 160.918 54.134 L 158.614 52.269 162.741 49.664 C 170.836 44.553, 173.683 39.517, 170.478 35.976 C 169.213 34.578, 167.986 34.208, 166.110 34.658 C 162.883 35.431, 154.804 41.196, 152.680 44.241 C 151.676 45.681, 151.086 45.984, 151.052 45.077 C 151.024 44.294, 154.757 40.019, 159.350 35.577 C 173.888 21.514, 181.816 6.769, 177.439 1.933 C 171.005 -5.177, 158.157 10.158, 148.896 36 C 145.449 45.617, 134.087 56, 127.008 56 C 122.312 56, 123.726 49.607, 129.756 43.577 C 133.739 39.595, 137.973 38.469, 135.784 41.975 C 133.751 45.230, 136.102 46.495, 139.384 43.913 C 142.843 41.192, 142.627 37.193, 138.909 35.115 C 134.927 32.891, 128.245 36.534, 122.419 44.105 C 118.355 49.387, 111.837 55, 109.768 55 C 107.908 55, 109.289 49.309, 112.573 43.435 C 114.538 39.921, 115.862 36.586, 115.514 36.023 C 114.721 34.740, 111.314 34.683, 110.537 35.941 C 110.201 36.484, 108.777 36.205, 107.167 35.281 C 104.528 33.766, 104.078 33.818, 98.794 36.237 C 94.784 38.072, 92.027 40.303, 89.014 44.147 C 77.833 58.412, 68.502 59.989, 71.994 47.023 C 72.884 43.717, 75.081 40.867, 81.923 34.139 C 91.787 24.441, 97.430 16.543, 99.565 9.450 C 100.838 5.219, 100.829 4.387, 99.480 2.330 C 97.627 -0.499, 94.557 -0.637, 90.366 1.919 M 266.690 4.042 C 260.713 9.303, 253.792 19.806, 248.373 31.836 C 245.987 37.136, 241.970 43.954, 239.447 46.986 C 217.588 73.264, 190.469 76.779, 195.885 52.634 C 200.384 32.580, 223.776 7.826, 238.470 7.570 C 242.049 7.508, 242.532 7.780, 242.782 10 C 243.203 13.739, 238.975 21.183, 235 23.700 C 227.462 28.474, 227.313 28.648, 229.138 30.523 C 231.294 32.737, 234.100 31.803, 239.278 27.148 C 248.518 18.841, 251.722 8.906, 246.686 4.174 C 244.886 2.483, 243.142 2, 238.845 2 C 220.784 2, 193.698 30.188, 189.784 53.057 C 188.328 61.566, 189.353 66.553, 193.389 70.589 C 201.940 79.140, 217.752 74.430, 234.604 58.312 C 240.569 52.607, 240.688 52.548, 239.811 55.722 C 238.898 59.030, 240.098 63, 242.012 63 C 242.530 63, 243.711 61.763, 244.637 60.250 C 250.915 49.993, 256.932 44, 260.952 44 C 262.412 44, 262.490 44.687, 261.627 49.908 C 260.802 54.895, 260.914 56.220, 262.348 58.408 C 264.963 62.399, 270.230 61.728, 275.750 56.701 C 276.988 55.574, 278 55.180, 278 55.826 C 278 56.472, 278.900 57.900, 280 59 C 283.627 62.627, 293.146 61.035, 300.507 55.569 C 302.407 54.158, 302.514 54.246, 302.507 57.194 C 302.495 62.304, 304.702 61.531, 307.862 55.317 C 311.069 49.010, 316.978 41.617, 320.183 39.902 C 321.925 38.970, 322.108 39.085, 321.572 40.773 C 321.191 41.972, 321.582 43.238, 322.592 44.076 C 324.006 45.250, 324.487 45.117, 326.115 43.107 C 328.602 40.035, 328.576 35.379, 326.065 34.035 C 323.646 32.740, 320.505 33.862, 316.043 37.617 C 313.062 40.126, 312.829 40.188, 313.896 38.195 C 315.313 35.546, 314.608 34, 311.981 34 C 310.629 34, 309.733 35.157, 308.880 38.008 C 306.383 46.339, 295.067 56, 287.804 56 C 284.751 56, 284 55.630, 284 54.125 C 284 52.882, 284.927 52.061, 286.750 51.690 C 294.296 50.155, 303.090 40.905, 300.898 36.809 C 298.182 31.735, 288.800 34.867, 282.683 42.889 C 278.524 48.342, 270.580 56, 269.081 56 C 267.205 56, 266.918 53.968, 267.972 48.152 C 268.559 44.915, 268.764 41.549, 268.427 40.671 C 266.892 36.670, 260.064 37.542, 253.461 42.581 C 247.295 47.288, 247.841 44.598, 254.180 39.041 C 270.809 24.462, 277.578 15.935, 279.471 7.183 C 280.010 4.692, 279.753 3.384, 278.439 1.933 C 275.640 -1.161, 271.822 -0.475, 266.690 4.042 M 169.057 7.939 C 166.234 10.961, 160.413 21.421, 157.616 28.500 L 156.035 32.500 161.425 26.689 C 166.315 21.419, 174 8.838, 174 6.104 C 174 4.138, 171.868 4.930, 169.057 7.939 M 267.557 10.274 C 262.830 15.205, 252.868 32.008, 254.680 31.994 C 256.676 31.978, 265.142 23.475, 269.327 17.282 C 277.566 5.089, 276.516 0.930, 267.557 10.274 M 88.738 10.250 C 84.741 15.253, 80.767 22.034, 77.922 28.708 L 75.878 33.500 80.509 29 C 85.863 23.798, 93.532 12.712, 94.531 8.732 C 95.592 4.505, 92.729 5.255, 88.738 10.250 M 343.500 34.164 C 342.400 34.771, 340.339 36.344, 338.920 37.658 L 336.339 40.049 336.796 36.939 C 337.202 34.173, 337.002 33.865, 334.998 34.164 C 333.115 34.445, 332.014 36.455, 328.325 46.341 C 324.854 55.641, 324.157 58.484, 325.075 59.591 C 327.017 61.931, 327.916 61.247, 330.459 55.497 C 333.586 48.426, 346.778 34.203, 344.357 40.513 C 344.037 41.345, 344.324 42.685, 344.993 43.492 C 346.776 45.640, 349.685 43.713, 350.540 39.816 C 351.114 37.206, 350.831 36.282, 349.011 34.808 C 346.429 32.717, 346.177 32.687, 343.500 34.164 M 353.472 40.250 C 348.278 51.446, 347.770 61, 352.369 61 C 355.557 61, 361.794 56.240, 365.928 50.654 C 367.813 48.106, 369.431 46.130, 369.524 46.261 C 369.617 46.392, 369.200 51.125, 368.597 56.779 L 367.500 67.057 362.477 69.919 C 350.240 76.892, 338.389 94.444, 340.429 102.574 C 342.080 109.150, 349.529 111.043, 356.124 106.562 C 362.436 102.272, 369.429 89.095, 371.974 76.693 C 373.145 70.985, 373.220 70.891, 376.333 71.193 C 379.117 71.463, 379.500 71.863, 379.500 74.500 C 379.500 76.997, 379.901 77.500, 381.891 77.500 C 387.132 77.500, 387.237 70.208, 382.035 67.518 C 380.420 66.683, 377.952 66, 376.550 66 C 374.426 66, 374.006 65.540, 374.036 63.250 C 374.095 58.696, 375.809 41.734, 376.571 38.170 C 377.257 34.957, 377.181 34.852, 374.406 35.170 C 372.191 35.424, 370.379 37.047, 366.515 42.232 C 360.760 49.958, 355.324 55.657, 354.497 54.830 C 353.821 54.154, 357.713 43.340, 359.645 40.527 C 361.854 37.311, 361.356 35, 358.454 35 C 356.359 35, 355.477 35.929, 353.472 40.250 M 101.480 40.018 C 97.102 41.638, 88.584 52.918, 90.381 54.715 C 91.024 55.357, 95.533 52.047, 101.741 46.375 C 105.343 43.084, 105.794 42.257, 104.732 40.889 C 103.893 39.807, 102.824 39.521, 101.480 40.018 M 292.454 40.894 C 289.350 42.806, 285.189 47, 286.395 47 C 288.980 47, 297.004 40.671, 295.864 39.531 C 295.613 39.280, 294.078 39.893, 292.454 40.894 M 158.597 44.123 C 156.021 46.391, 154.116 48.449, 154.364 48.697 C 155.557 49.890, 166 42.826, 166 40.826 C 166 38.920, 162.981 40.265, 158.597 44.123 M 42.385 46.875 C 37.922 48.402, 32.210 50.859, 29.692 52.334 C 25.527 54.776, 25.086 55.400, 24.807 59.259 C 24.557 62.708, 24.132 63.500, 22.530 63.500 C 21.446 63.500, 20.043 62.466, 19.413 61.202 C 18.274 58.918, 18.232 58.935, 12.762 63.935 C 1.473 74.252, 2.749 83.011, 15.321 81.494 C 31.676 79.521, 54 59.342, 54 46.532 C 54 43.298, 52.727 43.336, 42.385 46.875 M 362.410 75.872 C 353.105 82.741, 347.154 91.458, 346.241 99.554 L 345.740 104 349.002 104 C 353.101 104, 357.578 99.508, 361.288 91.674 C 363.902 86.151, 367.468 74.135, 366.716 73.382 C 366.498 73.164, 364.560 74.285, 362.410 75.872" stroke="none" fill="#000" fill-rule="evenodd"/><path d="" stroke="none" fill="#000" fill-rule="evenodd"/></svg>